<?xml version="1.0" encoding="utf-8"?>
<!-- Generator: Adobe Illustrator 24.3.0, SVG Export Plug-In . SVG Version: 6.00 Build 0)  -->
<svg version="1.1" id="Layer_1" xmlns="http://www.w3.org/2000/svg" xmlns:xlink="http://www.w3.org/1999/xlink" x="0px" y="0px"
	 viewBox="0 0 28.6 21" style="enable-background:new 0 0 28.6 21;" xml:space="preserve">
<style type="text/css">
	.st0{opacity:0.8;}
	.st1{fill:#FFFFFF;}
</style>
<g id="Group_723" transform="translate(-250.662 -89)" class="st0">
	<g id="Group_720" transform="translate(250.662 89)">
		<path id="Path_1037" class="st1" d="M2.4,21h5.2c0.8,0,1.5-0.4,1.9-1c0.4,0.6,1.2,1,1.9,1h5.7c0.8,0,1.5-0.4,1.9-1
			c0.4,0.6,1.2,1,1.9,1h5.2c1.3,0,2.4-1.1,2.4-2.4V2.4c0-1.3-1.1-2.4-2.4-2.4H21c-0.8,0-1.5,0.4-1.9,1c-0.4-0.6-1.2-1-1.9-1h-5.7
			C10.7,0,10,0.4,9.6,1c-0.5-0.6-1.2-1-2-1H2.4C1.1,0,0,1.1,0,2.4v16.2C0,19.9,1.1,21,2.4,21L2.4,21z M21,1h5.2
			c0.8,0,1.4,0.6,1.4,1.4l0,0v16.2c0,0.8-0.6,1.4-1.4,1.4l0,0H21c-0.8,0-1.4-0.6-1.4-1.4l0,0V2.4C19.6,1.6,20.2,1,21,1L21,1z
			 M11.5,1h5.7c0.8,0,1.4,0.6,1.4,1.4l0,0v16.2c0,0.8-0.6,1.4-1.4,1.4l0,0h-5.7c-0.8,0-1.4-0.6-1.4-1.4l0,0V2.4
			C10,1.6,10.7,1,11.5,1C11.4,1,11.5,1,11.5,1L11.5,1z M1,2.4C1,1.6,1.6,1,2.4,1l0,0h5.2C8.4,1,9,1.6,9,2.4l0,0v16.2
			C9,19.4,8.4,20,7.6,20l0,0H2.4C1.6,20,1,19.4,1,18.6l0,0V2.4L1,2.4z"/>
		<path id="Path_1038" class="st1" d="M20.8,9h2c-0.9,1.7-1.5,3.4-1.9,5.3c0,0.1,0,0.3,0.1,0.4c0.1,0.1,0.2,0.2,0.4,0.2h2.9
			c0.3,0,0.5-0.2,0.5-0.5c0.1-2,0.8-3.9,1.9-5.6c0.1-0.1,0.1-0.2,0.1-0.3v-2c0-0.3-0.2-0.5-0.5-0.5h-5.4c-0.3,0-0.5,0.2-0.5,0.5v1.9
			C20.3,8.8,20.6,9,20.8,9z M21.3,7.1h4.4v1.3c-1.1,1.7-1.7,3.6-1.9,5.5H22c0.4-1.4,1.2-4.1,2.2-5c0.1-0.1,0.2-0.3,0.1-0.5
			S24,8.1,23.8,8.1h-2.4v-1H21.3z"/>
		<path id="Path_1039" class="st1" d="M11.9,9h1.9c-0.9,1.7-1.5,3.4-1.9,5.3c0,0.1,0,0.3,0.1,0.4c0.1,0.1,0.2,0.2,0.4,0.2h2.9
			c0.3,0,0.5-0.2,0.5-0.5c0.1-2,0.8-3.9,1.9-5.6c0.1-0.1,0.1-0.2,0.1-0.3v-2c0-0.3-0.2-0.5-0.5-0.5h-5.4c-0.3,0-0.5,0.2-0.5,0.5v1.9
			C11.4,8.8,11.6,9,11.9,9z M12.4,7.1h4.4v1.3c-1.1,1.7-1.7,3.6-1.9,5.5H13c0.4-1.4,1.2-4.1,2.2-5c0.1-0.1,0.2-0.3,0.1-0.5
			c-0.1-0.2-0.3-0.3-0.5-0.3h-2.4V7.1L12.4,7.1z"/>
		<path id="Path_1040" class="st1" d="M2.4,9h1.9c-0.9,1.7-1.5,3.4-1.9,5.3c0,0.1,0,0.3,0.1,0.4c0.1,0.1,0.2,0.2,0.4,0.2h2.9
			c0.3,0,0.5-0.2,0.5-0.5c0.1-2,0.8-3.9,1.9-5.6c0-0.1,0.1-0.2,0.1-0.3v-2C8.3,6.2,8.1,6,7.8,6H2.4C2.2,6.1,2,6.3,2,6.6v1.9
			C2,8.8,2.2,9,2.4,9L2.4,9z M2.9,7.1h4.4v1.3c-1.1,1.7-1.7,3.6-1.9,5.5H3.6c0.4-1.4,1.2-4.1,2.2-5C5.9,8.8,6,8.6,5.9,8.4
			C5.7,8.2,5.6,8.1,5.4,8.1H2.9V7.1z"/>
		<path id="Path_1042" class="st1" d="M4.8,2.9h2.4c0.3,0,0.5-0.2,0.5-0.5S7.5,2,7.2,2H4.8C4.5,2,4.3,2.2,4.3,2.4S4.5,2.9,4.8,2.9z"
			/>
		<path id="Path_1124" class="st1" d="M2.9,2.9h2.4c0.3,0,0.5-0.2,0.5-0.5S5.6,2,5.3,2H2.9C2.6,2,2.4,2.2,2.4,2.4S2.6,2.9,2.9,2.9z"
			/>
		<path id="Path_1044" class="st1" d="M14.3,2.9h2.4c0.3,0,0.5-0.2,0.5-0.5S17,2,16.7,2h-2.4c-0.3,0-0.5,0.2-0.5,0.5
			S14,2.9,14.3,2.9z"/>
		<path id="Path_1125" class="st1" d="M12.3,2.9h2.4c0.3,0,0.5-0.2,0.5-0.5S15.1,2,14.8,2h-2.4c-0.3,0-0.5,0.2-0.5,0.5
			S12.1,2.9,12.3,2.9z"/>
		<path id="Path_1046" class="st1" d="M23.3,2.9h2.4c0.3,0,0.5-0.2,0.5-0.5S26,2,25.7,2h-2.4c-0.3,0-0.5,0.2-0.5,0.5
			S23,2.9,23.3,2.9L23.3,2.9z"/>
		<path id="Path_1126" class="st1" d="M21.4,2.9h2.4c0.3,0,0.5-0.2,0.5-0.5S24.1,2,23.8,2h-2.4c-0.3,0-0.5,0.2-0.5,0.5
			S21.1,2.9,21.4,2.9L21.4,2.9z"/>
		<path id="Path_1048" class="st1" d="M20.9,19.1h2.4c0.3,0,0.5-0.2,0.5-0.5s-0.2-0.5-0.5-0.5h-2.4c-0.3,0-0.5,0.2-0.5,0.5
			S20.7,19.1,20.9,19.1L20.9,19.1z"/>
		<path id="Path_1127" class="st1" d="M22.8,19.1h2.4c0.3,0,0.5-0.2,0.5-0.5s-0.2-0.5-0.5-0.5h-2.4c-0.3,0-0.5,0.2-0.5,0.5
			S22.6,19.1,22.8,19.1L22.8,19.1z"/>
		<path id="Path_1050" class="st1" d="M11.4,19.1h2.4c0.3,0,0.5-0.2,0.5-0.5s-0.2-0.5-0.5-0.5h-2.4c-0.3,0-0.5,0.2-0.5,0.5
			S11.2,19.1,11.4,19.1L11.4,19.1z"/>
		<path id="Path_1128" class="st1" d="M13.4,19.1h2.4c0.3,0,0.5-0.2,0.5-0.5s-0.2-0.5-0.5-0.5h-2.4c-0.3,0-0.5,0.2-0.5,0.5
			S13.1,19.1,13.4,19.1L13.4,19.1z"/>
		<path id="Path_1052" class="st1" d="M2.4,19.1h2.4c0.3,0,0.5-0.2,0.5-0.5s-0.2-0.5-0.5-0.5H2.4c-0.3,0-0.5,0.2-0.5,0.5
			C2,18.8,2.2,19,2.4,19.1L2.4,19.1z"/>
		<path id="Path_1129" class="st1" d="M4.4,19.1h2.4c0.3,0,0.5-0.2,0.5-0.5s-0.2-0.5-0.5-0.5H4.4c-0.3,0-0.5,0.2-0.5,0.5
			C4,18.8,4.2,19,4.4,19.1L4.4,19.1z"/>
	</g>
</g>
</svg>
