<svg version="1.1" data-icon="expand" xmlns="http://www.w3.org/2000/svg" x="0px" y="0px" width="20px" height="20px" viewBox="0.25 18.5 648 648" enable-background="new 0.25 18.5 648 648">
                  <polygon fill="#FFFFFF" points="244.46,18.5 82.75,18.5 0.25,18.5 0,18.5 0,262.7 82.75,262.7 82.75,101.25 244.46,101.25 "></polygon>
                  <polygon fill="#FFFFFF" points="0.13,422.04 0.13,583.75 0.13,666.25 0.13,666.5 244.33,666.5 244.33,583.75 82.88,583.75 82.88,422.04 "></polygon>
                  <polygon fill="#FFFFFF" points="403.79,666.5 565.5,666.5 648,666.49 648.25,666.49 648.25,422.29 565.5,422.29 565.5,583.75 403.79,583.75 "></polygon>
                  <polygon fill="#FFFFFF" points="648.13,262.95 648.13,101.24 648.13,18.74 648.13,18.49 403.92,18.49 403.92,101.24 565.38,101.24 565.38,262.95 "></polygon>
                </svg>