<svg _ngcontent-ng-c3776699077="" xmlns="http://www.w3.org/2000/svg" width="20" height="19" viewBox="0 0 20 19"><g _ngcontent-ng-c3776699077="" id="Group_122" data-name="Group 122" transform="translate(-1215 -74)"><rect _ngcontent-ng-c3776699077="" id="Rectangle_22" data-name="Rectangle 22" width="20" height="19" rx="5" transform="translate(1215 74)" fill="#ffe82f"></rect><g _ngcontent-ng-c3776699077="" id="Group_40" data-name="Group 40" transform="translate(927.506 -114.092)"><path _ngcontent-ng-c3776699077="" id="Path_8" data-name="Path 8" d="M296.157,206.62l-2.707,2.707v-1.739a.408.408,0,0,0-.815,0v2.724a.408.408,0,0,0,.408.408h2.724a.408.408,0,0,0,0-.815h-1.739l2.707-2.707a.408.408,0,1,0-.577-.577Z" transform="translate(0 -8.216)" fill="#333"></path><path _ngcontent-ng-c3776699077="" id="Path_9" data-name="Path 9" d="M312.24,190.795h-2.723a.408.408,0,0,0,0,.816h1.739l-2.626,2.626a.408.408,0,0,0,.577.577l2.626-2.626v1.739a.408.408,0,0,0,.816,0V191.2A.408.408,0,0,0,312.24,190.795Z" transform="translate(-10.305 2)" fill="#333"></path></g></g></svg>