<?xml version="1.0" encoding="utf-8"?>
<!-- Generator: Adobe Illustrator 24.3.0, SVG Export Plug-In . SVG Version: 6.00 Build 0)  -->
<svg version="1.1" id="Layer_1" xmlns="http://www.w3.org/2000/svg" xmlns:xlink="http://www.w3.org/1999/xlink" x="0px" y="0px"
	 viewBox="0 0 26.3 22.7" style="enable-background:new 0 0 26.3 22.7;" xml:space="preserve">
<style type="text/css">
	.st0{opacity:0.8;}
	.st1{fill:#FFFFFF;}
</style>
<g id="Group_779" transform="translate(-0.001 -214)" class="st0">
	<path id="Path_1166" class="st1" d="M26.1,226.6l-12.4-12.4c-0.3-0.3-0.8-0.3-1.1,0l0,0L0.2,226.6c-0.3,0.3-0.3,0.8,0,1.1
		s0.8,0.3,1.1,0l11.8-11.8L25,227.7c0.3,0.3,0.8,0.3,1.1,0C26.4,227.4,26.4,226.9,26.1,226.6L26.1,226.6z"/>
	<path id="Path_1167" class="st1" d="M21.9,226.4c-0.4,0-0.8,0.3-0.8,0.8v8H5.2v-8c0-0.4-0.3-0.8-0.7-0.8s-0.8,0.3-0.8,0.7
		c0,0,0,0,0,0.1v8.7c0,0.4,0.3,0.8,0.8,0.8l0,0H22c0.4,0,0.8-0.3,0.8-0.8l0,0v-8.7C22.7,226.7,22.3,226.4,21.9,226.4z"/>
	<path id="Path_1168" class="st1" d="M16.1,226.4h-5.8c-0.4,0-0.8,0.3-0.8,0.8v8H11V228h4.3v7.2h1.6v-8
		C16.8,226.7,16.5,226.4,16.1,226.4z"/>
</g>
</svg>
