<?xml version="1.0" encoding="utf-8"?>
<!-- Generator: Adobe Illustrator 23.0.0, SVG Export Plug-In . SVG Version: 6.00 Build 0)  -->
<svg version="1.1" id="Capa_1" xmlns="http://www.w3.org/2000/svg" xmlns:xlink="http://www.w3.org/1999/xlink" x="0px" y="0px"
	 viewBox="0 0 360 374" style="enable-background:new 0 0 360 374;" xml:space="preserve">
<style type="text/css">
	.st0{fill:#FFFFFF;}
</style>
<image style="overflow:visible;" width="3280" height="1080" xlink:href="BA789F55.jpg"  transform="matrix(1 0 0 1 -4568 -1217)">
</image>
<image style="overflow:visible;" width="3280" height="1080" xlink:href="BA789F57.jpg"  transform="matrix(1 0 0 1 -4749 -166)">
</image>
<path class="st0" d="M24.6,170.3c0,0-18,15.2-2.8,30.4c0,0,11.1,8.3,26.3-6.9c38.1-38.1,76.3-76.2,114.3-114.5
	c3.8-3.8,8.1-7.9,13.5-8.2c3.5-0.2,6.9,1.3,9.8,3.2c11.4,7.5,20.8,20.6,30.5,30.3c12.6,12.6,25.2,25.2,37.7,37.7
	c17.1,17.1,34.2,34.2,51.3,51.3c0,0,0.1,0.1,0.1,0.1c0,0,19.4,19.4,33.2,5.5c0,0,13.8-11.1-2.8-27.7c0,0-49.8-49.8-49.8-49.8
	c0-20,0.5-40.1,0.1-60.1c-0.1-4.4-1-9-3.9-12.3c-3.6-4.2-9.6-5.5-15.1-4.8c-9.6,1.2-16.1,7.7-17,17.3c-0.5,4.7,0.1,9.5-0.2,14.2
	c-0.2,3-0.3,6.2-0.5,9.1c-21.7-21.9-41.1-55-76.5-52.6c-33.9,2.4-59.4,42.6-81,65.7c-20.7,22.2-41.5,44.3-62.2,66.5
	C28.1,166.6,26.4,168.5,24.6,170.3z"/>
<path class="st0" d="M62,221.5l107.9-107.9c0,0,8.3-11.1,19.4,0c0,0,107.9,107.9,107.9,107.9c0,11.7,0,23.4,0,35.1
	c0,9.5,0,18.9,0,28.4c0,10.2,1.4,21.3-1.1,31.2c-3.1,12.4-13,24.3-26.6,24.3h-58.1v-83h-63.6c0,0,0,82.9,0,83
	c0-0.1-47.6,0.1-51.5,0.1c-4.1,0-8.3,0-12.3-1.1C70.9,335.8,62,323.3,62,310C62,310,62,221.5,62,221.5z"/>
</svg>
