<?xml version="1.0" encoding="UTF-8" standalone="no"?>
<!-- Created with Inkscape (http://www.inkscape.org/) -->

<svg
   width="51.985329mm"
   height="51.997837mm"
   viewBox="0 0 51.985329 51.997837"
   version="1.1"
   id="svg1"
   xml:space="preserve"
   xmlns="http://www.w3.org/2000/svg"
   xmlns:svg="http://www.w3.org/2000/svg"><defs
     id="defs1" /><g
     id="layer1"
     transform="translate(-327.42347,87.047407)"><path
       style="fill:#000000"
       d="m 335.05065,-35.112685 c -0.27546,-0.04059 -0.78981,-0.152123 -1.143,-0.247849 -0.3532,-0.09573 -1.02318,-0.359502 -1.48885,-0.586172 -0.46566,-0.22667 -1.10163,-0.605737 -1.41325,-0.842371 -0.31162,-0.236635 -0.75969,-0.623351 -0.99571,-0.85937 -0.23602,-0.236019 -0.62274,-0.68409 -0.85937,-0.995713 -0.23664,-0.311624 -0.61725,-0.948483 -0.8458,-1.415243 -0.22856,-0.466761 -0.52033,-1.228761 -0.64838,-1.693334 -0.23282,-0.844678 -0.23282,-0.844678 -0.23282,-19.302014 0,-18.457328 0,-18.457328 0.22701,-19.279088 0.12485,-0.45196 0.37943,-1.14702 0.56573,-1.54456 0.18629,-0.39755 0.51776,-0.98968 0.7366,-1.31585 0.21884,-0.32617 0.63225,-0.83324 0.9187,-1.12683 0.28645,-0.29358 0.78627,-0.73534 1.11072,-0.98168 0.32445,-0.24635 0.9718,-0.6349 1.43856,-0.86345 0.46676,-0.22856 1.22876,-0.52033 1.69334,-0.64838 0.84467,-0.23282 0.84467,-0.23282 19.30201,-0.23282 18.45733,0 18.45733,0 19.27909,0.22701 0.45197,0.12485 1.14702,0.37943 1.54456,0.56572 0.39755,0.1863 0.98968,0.51777 1.31585,0.73661 0.32617,0.21883 0.83324,0.63225 1.12683,0.9187 0.29358,0.28644 0.73534,0.78627 0.98168,1.11072 0.24635,0.32445 0.6349,0.9718 0.86346,1.43856 0.22855,0.46676 0.52032,1.22876 0.64837,1.69333 0.23282,0.84468 0.23282,0.84468 0.23282,19.302008 0,18.457336 0,18.457336 -0.23282,19.302014 -0.12805,0.464573 -0.41982,1.226573 -0.64837,1.693334 -0.22856,0.46676 -0.61711,1.114113 -0.86346,1.438562 -0.24634,0.324449 -0.6881,0.824274 -0.98168,1.110722 -0.29359,0.286447 -0.80066,0.699862 -1.12683,0.918699 -0.32617,0.218837 -0.9183,0.550309 -1.31585,0.736604 -0.39754,0.186296 -1.09259,0.440873 -1.54456,0.565727 -0.82176,0.227007 -0.82176,0.227007 -18.98276,0.238607 -9.98855,0.0064 -18.38637,-0.02161 -18.66182,-0.0622 z m 36.95304,-1.728074 c 0.33382,-0.07022 0.88584,-0.239349 1.2267,-0.375837 0.34087,-0.136489 0.7846,-0.35081 0.98608,-0.47627 0.20148,-0.125461 0.61798,-0.42976 0.92555,-0.676221 0.30757,-0.246461 0.75076,-0.68906 0.98488,-0.983553 0.23411,-0.294493 0.53839,-0.726888 0.67618,-0.960879 0.13778,-0.23399 0.35157,-0.678044 0.47509,-0.986786 0.12352,-0.308742 0.28196,-0.834161 0.3521,-1.167598 0.11129,-0.529054 0.12753,-2.895753 0.12753,-18.586848 0,-15.700338 -0.0162,-18.057558 -0.12767,-18.587548 -0.0702,-0.33382 -0.24321,-0.89547 -0.38441,-1.2481 -0.1412,-0.35264 -0.43547,-0.91067 -0.65392,-1.24008 -0.21846,-0.32941 -0.65353,-0.85588 -0.96683,-1.16992 -0.3133,-0.31404 -0.83507,-0.74269 -1.15949,-0.95256 -0.32441,-0.20986 -0.87447,-0.49554 -1.22234,-0.63483 -0.34788,-0.1393 -0.90563,-0.31072 -1.23945,-0.38094 -0.53013,-0.11152 -2.88625,-0.1275 -18.61426,-0.12621 -15.1676,10e-4 -18.0961,0.0203 -18.57045,0.12083 -0.30974,0.0657 -0.85938,0.23797 -1.22141,0.38294 -0.36203,0.14496 -0.92776,0.44157 -1.25717,0.65913 -0.32941,0.21756 -0.88468,0.68699 -1.23393,1.04318 -0.34925,0.35619 -0.81438,0.94818 -1.03362,1.31553 -0.21924,0.36736 -0.52404,1.02987 -0.67733,1.47225 -0.27872,0.80433 -0.27872,0.80433 -0.30135,19.049998 -0.0198,15.987766 -0.007,18.322238 0.10498,18.864432 0.0702,0.340321 0.24383,0.909003 0.38587,1.263738 0.14205,0.354734 0.437,0.91449 0.65546,1.2439 0.21845,0.329411 0.64554,0.847285 0.94909,1.15083 0.30355,0.303546 0.82142,0.730638 1.15083,0.949094 0.32941,0.218456 0.89075,0.514042 1.24741,0.656859 0.35667,0.142816 0.88725,0.311974 1.17908,0.375905 0.43987,0.09636 3.61657,0.117692 18.58021,0.12474 15.78417,0.0074 18.12581,-0.0075 18.65659,-0.119176 z m -35.49639,-2.795324 c -0.3125,-0.0622 -0.83616,-0.199402 -1.1637,-0.304894 -0.37738,-0.12154 -0.61277,-0.24612 -0.6426,-0.340078 -0.0259,-0.08155 -0.005,-0.636094 0.0467,-1.232318 0.0516,-0.596223 0.16654,-1.543992 0.25552,-2.106152 0.089,-0.562161 0.23683,-1.343211 0.32855,-1.735667 0.0917,-0.392455 0.30549,-1.170755 0.47506,-1.729555 0.16956,-0.558804 0.47489,-1.422814 0.6785,-1.920034 0.20361,-0.49722 0.50542,-1.17255 0.67069,-1.50072 0.16526,-0.32818 0.30048,-0.63574 0.30048,-0.68347 0,-0.0477 -0.0892,-0.0868 -0.19812,-0.0868 -0.10897,0 -0.4995,-0.0768 -0.86784,-0.17067 -0.36834,-0.0939 -0.94571,-0.30144 -1.28304,-0.46126 -0.33734,-0.15982 -0.78069,-0.40572 -0.98524,-0.54645 -0.20454,-0.14073 -0.58609,-0.45163 -0.84788,-0.69089 -0.26178,-0.23926 -0.69837,-0.76751 -0.97019,-1.17388 -0.279,-0.41712 -0.60641,-1.04913 -0.75186,-1.45135 -0.14171,-0.39187 -0.30448,-1.0032 -0.36172,-1.35851 -0.0572,-0.35531 -0.088,-1.04111 -0.0683,-1.524 0.0276,-0.67814 0.0762,-0.95507 0.21341,-1.21665 0.0977,-0.18627 0.26763,-0.42257 0.37757,-0.52513 0.10994,-0.10255 0.35155,-0.24982 0.5369,-0.32727 0.18535,-0.0774 0.51615,-0.14081 0.7351,-0.14081 0.24091,0 0.55496,0.0759 0.79538,0.19233 0.32641,0.15801 0.59361,0.43978 1.49788,1.57954 1.1006,1.38722 1.1006,1.38722 1.49113,1.33425 0.21479,-0.0291 0.80963,-0.14976 1.32186,-0.26804 0.51223,-0.11829 1.00168,-0.25171 1.08767,-0.29649 0.086,-0.0448 0.28454,-0.36274 0.44123,-0.70659 0.1567,-0.34385 0.39919,-0.94898 0.53888,-1.34473 0.25397,-0.71956 0.25397,-0.71956 0.0271,-0.99731 -0.12476,-0.15276 -0.57526,-0.677798 -1.00111,-1.166748 -0.42586,-0.48895 -0.87278,-1.03429 -0.99316,-1.21186 -0.12038,-0.17757 -0.24402,-0.49054 -0.27475,-0.6955 -0.0312,-0.20786 -0.0115,-0.55788 0.0446,-0.79151 0.0592,-0.2469 0.21862,-0.55688 0.38823,-0.75503 0.15826,-0.18489 0.45054,-0.40187 0.64951,-0.48216 0.19898,-0.0803 0.54035,-0.14918 0.7586,-0.15306 0.39683,-0.007 0.39683,-0.007 0.33867,-0.26614 -0.032,-0.14249 -0.0582,-1.40409 -0.0582,-2.80355 0,-2.54448 0,-2.54448 0.3235,-3.19894 0.2414,-0.48838 0.42878,-0.73768 0.7384,-0.98242 0.2282,-0.18039 0.58608,-0.39334 0.79529,-0.47324 0.32975,-0.12593 0.39936,-0.1974 0.5231,-0.53709 0.0785,-0.21551 0.2715,-0.69664 0.42887,-1.06917 0.15737,-0.37253 0.49625,-1.02965 0.75307,-1.46027 0.25682,-0.43061 0.69187,-1.08144 0.96679,-1.44628 0.27491,-0.36484 0.85567,-1.00351 1.29056,-1.41927 0.43489,-0.41576 1.03695,-0.93076 1.3379,-1.14445 0.30096,-0.21369 0.8595,-0.56789 1.24122,-0.78712 0.38172,-0.21924 1.0192,-0.52973 1.41664,-0.68999 0.39743,-0.16025 1.09411,-0.3879 1.54818,-0.50588 0.45406,-0.11797 1.30701,-0.2562 1.89544,-0.30718 0.77889,-0.0675 1.35667,-0.0671 2.12435,10e-4 0.57997,0.0517 1.4309,0.19172 1.89096,0.31126 0.46006,0.11953 1.20021,0.36924 1.64477,0.55491 0.44456,0.18567 1.075,0.49461 1.40096,0.68653 0.32597,0.19193 0.94095,0.60919 1.36662,0.92725 0.42568,0.31805 1.11645,0.94018 1.53506,1.3825 0.41861,0.44231 1.01066,1.17618 1.31567,1.63081 0.30501,0.45464 0.74419,1.20761 0.97595,1.67327 0.23177,0.46567 0.51064,1.10804 0.61972,1.42749 0.19304,0.56538 0.21053,0.58626 0.6575,0.78501 0.25256,0.1123 0.62265,0.33812 0.82244,0.50183 0.24591,0.20151 0.46679,0.50716 0.68381,0.94625 0.32057,0.64859 0.32057,0.64859 0.31788,3.27768 -0.003,2.53262 -0.01,2.64679 -0.19505,3.11182 -0.1058,0.2655 -0.36425,0.67391 -0.57433,0.90757 -0.24002,0.26695 -0.58661,0.52559 -0.9326,0.69592 -0.54673,0.26915 -0.56165,0.27135 -2.11133,0.31018 -1.5607,0.0391 -1.5607,0.0391 -1.14192,-0.83999 0.23032,-0.4835 0.51755,-1.22154 0.63827,-1.64008 0.12073,-0.41855 0.27903,-1.1234 0.35177,-1.56634 0.0992,-0.60369 0.12132,-1.16572 0.0885,-2.24467 -0.035,-1.1525 -0.0863,-1.60926 -0.25739,-2.29202 -0.1175,-0.46898 -0.30964,-1.10777 -0.42699,-1.41954 -0.11735,-0.31176 -0.3947,-0.91795 -0.61633,-1.34707 -0.22164,-0.42913 -0.62072,-1.06668 -0.88686,-1.4168 -0.26613,-0.35011 -0.68634,-0.84643 -0.9338,-1.10292 -0.24746,-0.25649 -0.68298,-0.66019 -0.96782,-0.89712 -0.28484,-0.23692 -0.80591,-0.61029 -1.15795,-0.82971 -0.35203,-0.21941 -0.96365,-0.53086 -1.35916,-0.6921 -0.3955,-0.16125 -1.01618,-0.36916 -1.37928,-0.46202 -0.3631,-0.0929 -1.06148,-0.20394 -1.55195,-0.24682 -0.54172,-0.0474 -1.24122,-0.0475 -1.78201,-3.9e-4 -0.48963,0.0427 -1.18298,0.15245 -1.54077,0.24396 -0.35779,0.0915 -0.94113,0.28274 -1.29632,0.42496 -0.35518,0.14222 -0.9027,0.40864 -1.21672,0.59203 -0.31402,0.1834 -0.80351,0.50827 -1.08775,0.72194 -0.28424,0.21366 -0.78128,0.65036 -1.10454,0.97043 -0.32326,0.32007 -0.765,0.8123 -0.98164,1.09384 -0.21665,0.28155 -0.56123,0.79492 -0.76573,1.14082 -0.20451,0.34591 -0.48611,0.89089 -0.62579,1.21106 -0.13968,0.32018 -0.35146,0.90599 -0.47063,1.3018 -0.11916,0.39582 -0.27506,1.05804 -0.34643,1.47159 -0.0753,0.43631 -0.12977,1.25794 -0.12977,1.95741 0,0.6782 0.0542,1.51637 0.12394,1.91622 0.0682,0.3909 0.2227,1.05312 0.3434,1.47159 0.12071,0.41847 0.4055,1.15139 0.63287,1.62869 0.41339,0.86784 0.41339,0.86784 -0.0151,0.86784 -0.40264,0 -0.42146,0.009 -0.3123,0.15711 0.0639,0.0864 0.2581,0.34359 0.43159,0.5715 0.17349,0.22791 0.44585,0.66204 0.60525,0.96472 0.1594,0.30269 0.38893,0.86663 0.51007,1.253208 0.12114,0.38657 0.22083,0.78662 0.22154,0.889 7.2e-4,0.10237 0.0323,0.23495 0.0701,0.29461 0.0528,0.0832 0.27791,0.0192 0.96699,-0.27516 0.49399,-0.21101 0.94486,-0.38366 1.00195,-0.38366 0.0571,0 0.27885,0.11233 0.49281,0.24963 0.21395,0.13729 0.75289,0.42199 1.19764,0.63267 0.44474,0.21068 1.18742,0.48398 1.6504,0.60732 0.47853,0.1275 1.20713,0.24724 1.68844,0.27749 0.46567,0.0293 1.22767,0.0296 1.69334,7.7e-4 0.48705,-0.0302 1.2042,-0.14803 1.68844,-0.27749 0.46297,-0.12377 1.20566,-0.39741 1.6504,-0.60809 0.44475,-0.21068 0.99343,-0.50163 1.21928,-0.64656 0.41065,-0.26352 0.41065,-0.26352 0.84727,-0.11177 0.24013,0.0835 0.83666,0.34778 1.32561,0.58737 0.48895,0.23959 1.20717,0.62523 1.59606,0.85697 0.38888,0.23175 1.11278,0.72457 1.60866,1.09516 0.49589,0.37058 1.35352,1.11353 1.90585,1.651 0.55233,0.53746 1.31205,1.3582 1.68826,1.82386 0.37621,0.46567 0.98327,1.30387 1.34902,1.86267 0.36576,0.5588 0.96647,1.6256 1.33492,2.37067 0.36845,0.74506 0.82202,1.76424 1.00792,2.26482 0.1859,0.50059 0.45326,1.312207 0.59412,1.803597 0.14087,0.491389 0.34942,1.339117 0.46345,1.88384 0.11403,0.544724 0.26625,1.466657 0.33826,2.04874 0.072,0.582083 0.1562,1.519187 0.18709,2.082452 0.0562,1.024119 0.0562,1.024119 -0.34787,1.0795 -0.22222,0.03046 -8.5426,0.0518 -18.48973,0.04743 -14.72272,-0.0065 -18.19133,-0.02898 -18.65385,-0.121046 z m 12.84484,-6.266014 c 0.79163,-0.673563 1.52506,-1.322107 1.62983,-1.441209 0.10478,-0.119105 0.1905,-0.268415 0.1905,-0.331795 0,-0.0634 -1.63631,-2.08575 -3.63625,-4.49415 -3.63625,-4.3789 -3.63625,-4.3789 -3.42785,-4.79016 0.11462,-0.22619 0.28382,-0.72582 0.37599,-1.11029 0.0993,-0.41412 0.16783,-0.99549 0.16818,-1.42634 3.7e-4,-0.44899 -0.0634,-0.97752 -0.16666,-1.38124 -0.092,-0.35968 -0.29163,-0.88965 -0.44365,-1.177708 -0.16115,-0.30535 -0.54156,-0.79059 -0.91225,-1.16363 -0.44877,-0.45162 -0.81635,-0.73014 -1.24937,-0.94666 -0.33744,-0.16873 -0.89825,-0.37012 -1.24624,-0.44754 -0.34799,-0.0774 -0.67138,-0.12768 -0.71864,-0.11168 -0.0473,0.016 0.38996,0.58154 0.97161,1.25675 0.58166,0.67522 1.15456,1.42265 1.27313,1.660958 0.21168,0.42548 0.21331,0.44302 0.09,0.97366 -0.0691,0.29721 -0.24477,0.86346 -0.39049,1.25833 -0.14573,0.39488 -0.41588,1.04002 -0.60035,1.43366 -0.18447,0.39364 -0.43205,0.84244 -0.5502,0.99734 -0.11814,0.15489 -0.35672,0.35402 -0.53017,0.44251 -0.17345,0.0885 -0.67607,0.25793 -1.11693,0.37654 -0.44085,0.11861 -1.15562,0.27592 -1.58837,0.34957 -0.43275,0.0737 -0.99442,0.13639 -1.24815,0.13942 -0.31214,0.004 -0.54064,-0.0452 -0.70656,-0.1514 -0.13488,-0.0863 -0.41345,-0.34742 -0.61905,-0.58025 -0.20559,-0.23284 -0.71467,-0.85939 -1.13128,-1.39235 -0.75748,-0.969 -0.75748,-0.969 -0.78208,-0.32435 -0.0141,0.36895 0.0305,0.88238 0.10429,1.20048 0.0709,0.3057 0.25182,0.8136 0.40204,1.12868 0.20207,0.42383 0.4613,0.76015 0.99637,1.29273 0.51622,0.51381 0.88283,0.79686 1.28079,0.9889 0.30665,0.14797 0.7884,0.32886 1.07055,0.40197 0.31014,0.0804 0.86958,0.13294 1.41471,0.13294 0.55399,0 1.11454,-0.0535 1.45359,-0.13863 0.31763,-0.0798 0.58084,-0.10674 0.62011,-0.0635 0.0375,0.0413 1.67315,2.0087 3.63471,4.37196 2.80598,3.380613 3.60723,4.296226 3.75762,4.293988 0.1208,-0.0018 0.72089,-0.453573 1.63049,-1.227504 z m 3.85746,-15.281154 c -0.29986,-0.042 -0.81421,-0.15777 -1.143,-0.2572 -0.32879,-0.0994 -0.86914,-0.30578 -1.20078,-0.458528 -0.33165,-0.15275 -0.846,-0.44151 -1.143,-0.6417 -0.29701,-0.20019 -0.83471,-0.64911 -1.19489,-0.99761 -0.36017,-0.34849 -0.8461,-0.91027 -1.07984,-1.24838 -0.23374,-0.33812 -0.59516,-0.97025 -0.80316,-1.40475 -0.208,-0.4345 -0.47484,-1.12865 -0.59298,-1.54256 -0.11813,-0.41391 -0.2586,-1.20029 -0.31215,-1.7475 -0.0738,-0.75432 -0.0734,-1.23123 0.002,-1.97208 0.0545,-0.53744 0.19496,-1.31316 0.31216,-1.72384 0.1172,-0.41067 0.38327,-1.10218 0.59127,-1.53667 0.208,-0.4345 0.56942,-1.06663 0.80316,-1.40475 0.23374,-0.33811 0.71967,-0.89989 1.07984,-1.24838 0.36018,-0.3485 0.88347,-0.78748 1.16287,-0.9755 0.2794,-0.18803 0.7366,-0.45691 1.016,-0.59751 0.2794,-0.1406 0.82152,-0.35449 1.2047,-0.4753 0.38319,-0.12082 1.04994,-0.26287 1.48167,-0.31566 0.44278,-0.0541 1.09869,-0.0714 1.50463,-0.0396 0.39582,0.031 0.96732,0.11266 1.27,0.18151 0.30269,0.0688 0.75117,0.19987 0.99663,0.29118 0.24546,0.0913 0.64551,0.26643 0.889,0.38916 0.24349,0.12274 0.71951,0.41388 1.05783,0.64699 0.33831,0.23311 0.92886,0.75526 1.31233,1.16035 0.38347,0.40509 0.87979,1.04163 1.10295,1.41455 0.22315,0.37291 0.53749,0.98278 0.69853,1.35526 0.16104,0.37249 0.37041,0.97856 0.46527,1.34683 0.0949,0.36827 0.21392,1.08703 0.26459,1.59724 0.0674,0.6783 0.0664,1.18152 -0.004,1.87204 -0.0527,0.5194 -0.17173,1.24147 -0.2646,1.60458 -0.0929,0.36312 -0.30061,0.96497 -0.46165,1.33745 -0.16104,0.37249 -0.47538,0.98454 -0.69853,1.36012 -0.2733,0.45997 -0.69593,0.97382 -1.29474,1.57418 -0.61123,0.61281 -1.10448,1.01892 -1.57863,1.29973 -0.3793,0.22463 -0.92252,0.502488 -1.20717,0.617468 -0.28464,0.11497 -0.80998,0.28383 -1.16742,0.37525 -0.36806,0.0941 -1.05621,0.18223 -1.58684,0.20315 -0.51531,0.0203 -1.18228,0.003 -1.48214,-0.0395 z m 3.88954,-3.506258 c 0.48895,-0.12345 1.2036,-0.37652 1.58812,-0.5624 0.47131,-0.22782 0.85929,-0.4957 1.19065,-0.82206 0.27034,-0.26626 0.57486,-0.65806 0.67671,-0.87067 0.11948,-0.24943 0.18518,-0.54786 0.18518,-0.84121 0,-0.35027 -0.0423,-0.49964 -0.18409,-0.65061 -0.18409,-0.19595 -0.18409,-0.19595 -6.13141,-0.19595 -3.27102,0 -6.00899,0.0237 -6.08437,0.0526 -0.0754,0.0289 -0.1928,0.16039 -0.26092,0.29213 -0.0681,0.13174 -0.12387,0.32976 -0.12387,0.44004 0,0.11028 0.0609,0.40562 0.13536,0.65633 0.10783,0.36311 0.25019,0.57064 0.69988,1.02034 0.37214,0.37213 0.77326,0.66963 1.17706,0.87298 0.3369,0.16966 0.94588,0.40374 1.35329,0.52017 0.40741,0.11643 0.96934,0.24684 1.24874,0.2898 0.2794,0.043 1.21285,0.0657 2.07433,0.0505 1.35655,-0.0239 1.6854,-0.0576 2.45534,-0.25201 z"
       id="path62" /></g></svg>
