<?xml version="1.0" encoding="UTF-8" standalone="no"?>
<svg
   viewBox="0 0 175.216 175.552"
   version="1.1"
   id="svg6"
   sodipodi:docname="support-whatsapp.svg"
   inkscape:version="1.3.2 (091e20e, 2023-11-25)"
   xmlns:inkscape="http://www.inkscape.org/namespaces/inkscape"
   xmlns:sodipodi="http://sodipodi.sourceforge.net/DTD/sodipodi-0.dtd"
   xmlns="http://www.w3.org/2000/svg"
   xmlns:svg="http://www.w3.org/2000/svg">
  <sodipodi:namedview
     id="namedview6"
     pagecolor="#ffffff"
     bordercolor="#000000"
     borderopacity="0.25"
     inkscape:showpageshadow="2"
     inkscape:pageopacity="0.0"
     inkscape:pagecheckerboard="0"
     inkscape:deskcolor="#d1d1d1"
     inkscape:zoom="1.4826261"
     inkscape:cx="109.26558"
     inkscape:cy="64.075493"
     inkscape:window-width="1376"
     inkscape:window-height="429"
     inkscape:window-x="0"
     inkscape:window-y="38"
     inkscape:window-maximized="0"
     inkscape:current-layer="svg6" />
  <defs
     id="defs2">
    <linearGradient
       id="b"
       x1="85.915"
       x2="86.535"
       y1="32.567"
       y2="137.092"
       gradientUnits="userSpaceOnUse"
       gradientTransform="matrix(1.1160741,0,0,1.1160741,-10.16896,-10.188518)">
      <stop
         offset="0"
         stop-color="#57d163"
         id="stop1" />
      <stop
         offset="1"
         stop-color="#23b33a"
         id="stop2" />
    </linearGradient>
    <filter
       id="a"
       width="1.1146948"
       height="1.1141825"
       x="-0.057347414"
       y="-0.05709127"
       color-interpolation-filters="sRGB">
      <feGaussianBlur
         stdDeviation="3.531"
         id="feGaussianBlur2" />
    </filter>
  </defs>
  <path
     fill="#b3b3b3"
     d="m 54.532,138.45 2.235,1.324 c 9.387,5.571 20.15,8.518 31.126,8.523 h 0.023 c 33.707,0 61.139,-27.426 61.153,-61.135 0.006,-16.335 -6.349,-31.696 -17.895,-43.251 A 60.75,60.75 0 0 0 87.94,25.983 c -33.733,0 -61.166,27.423 -61.178,61.13 a 60.98,60.98 0 0 0 9.349,32.535 l 1.455,2.312 -6.179,22.558 z M 13.721,161.994 24.16,123.88 c -6.438,-11.154 -9.825,-23.808 -9.821,-36.772 0.017,-40.556 33.021,-73.55 73.578,-73.55 19.681,0.01 38.154,7.669 52.047,21.572 13.893,13.903 21.537,32.383 21.53,52.037 -0.018,40.553 -33.027,73.553 -73.578,73.553 h -0.032 c -12.313,-0.005 -24.412,-3.094 -35.159,-8.954 z m 0,0"
     filter="url(#a)"
     id="path2"
     transform="matrix(1.1160741,0,0,1.1160741,-10.16896,-10.188518)" />
  <path
     fill="#ffffff"
     d="M 4.3020561,169.76503 15.952753,127.22699 A 81.942159,81.942159 0 0 1 4.9917899,86.186711 C 5.0107632,40.923211 41.845672,4.0994624 87.110289,4.0994624 109.07574,4.1106232 129.69298,12.658635 145.1986,28.175413 c 15.50561,15.516777 24.03688,36.141826 24.02907,58.077146 -0.0201,45.260151 -36.86058,82.090601 -82.118497,82.090601 h -0.03571 c -13.74222,-0.006 -27.2456,-3.45314 -39.240048,-9.99333 z"
     id="path3"
     style="stroke-width:1.11607" />
  <path
     fill="url(#linearGradient1780)"
     d="m 87.134842,17.966683 c -37.648527,0 -68.265787,30.606099 -68.27918,68.225608 a 68.058197,68.058197 0 0 0 10.434177,36.311469 l 1.623888,2.58036 -6.896222,25.17752 25.83265,-6.77345 2.494426,1.47768 c 10.476587,6.21765 22.488893,9.50672 34.738922,9.51341 h 0.02567 c 37.619507,0 68.236767,-30.60944 68.251277,-68.231185 A 67.8015,67.8015 0 0 0 135.38831,37.976775 67.8015,67.8015 0 0 0 87.134842,17.966683 Z"
     id="path4"
     style="stroke-width:1.11607" />
  <path
     fill="url(#b)"
     d="m 87.134842,17.966683 c -37.648527,0 -68.265787,30.606099 -68.27918,68.225608 a 68.058197,68.058197 0 0 0 10.434177,36.311469 l 1.623888,2.58148 -6.896222,25.1764 25.83265,-6.77345 2.494426,1.47768 c 10.476587,6.21765 22.488893,9.5056 34.738922,9.5123 h 0.02567 c 37.619507,0 68.236767,-30.60945 68.251277,-68.231191 A 67.8015,67.8015 0 0 0 135.38831,37.975659 67.8015,67.8015 0 0 0 87.134842,17.966683 Z"
     id="path5"
     style="fill:url(#b);stroke-width:1.11607" />
  <path
     fill="#ffffff"
     fill-rule="evenodd"
     d="m 66.585686,51.868549 c -1.53795,-3.416303 -3.156257,-3.485499 -4.617198,-3.544651 l -3.933045,-0.04799 c -1.368307,0 -3.591527,0.513394 -5.470995,2.56697 -1.879469,2.053576 -7.181937,7.016758 -7.181937,17.111648 0,10.09489 7.352696,19.849377 8.377252,21.219916 1.024556,1.370539 14.19423,22.746708 35.050306,30.971058 17.331511,6.83483 20.858311,5.47546 24.621711,5.13394 3.7634,-0.34152 12.13954,-4.96318 13.84825,-9.75449 1.70871,-4.79131 1.70982,-8.89623 1.19754,-9.75449 -0.51227,-0.85826 -1.88058,-1.3683 -3.93416,-2.39509 -2.05357,-1.02679 -12.13953,-5.989971 -14.02012,-6.67524 -1.88058,-0.68527 -3.24777,-1.025672 -4.6172,1.027904 -1.36942,2.053576 -5.29689,6.673006 -6.494433,8.042426 -1.197547,1.36943 -2.392863,1.5413 -4.446439,0.51563 C 92.911642,105.26042 86.304483,103.093 78.465179,96.103029 72.365834,90.6644 68.248637,83.947866 67.049973,81.895406 c -1.198663,-2.05246 -0.127232,-3.16407 0.901788,-4.186394 0.920761,-0.919645 2.051344,-2.396211 3.079248,-3.593758 1.027905,-1.197548 1.366075,-2.053576 2.049112,-3.420767 0.683038,-1.367191 0.342635,-2.568087 -0.170759,-3.593759 -0.513394,-1.025672 -4.500011,-11.173017 -6.323676,-15.231063"
     id="path6"
     style="stroke-width:1.11607" />
</svg>
